PathFileType	4	(X/Y/Z)	E:\Marcel_BSc\Hannes_22_01_2025\22-01-2025\sumo_dl_3.trc
DataRate	CameraRate	NumFrames	NumMarkers	Units	OrigDataRate	OrigDataStartFrame	OrigNumFrames
200.0	200.0	7	48	mm	200.0	3140	2673	
Frame#	Time	FHD			LBHD			RBHD			RBAR			LBAR			RSACR			LSACR			USACR			LASI			C7			CLAV			T10			RSHO			LSHO			LTHI1			LTHI3			LTHI2			LTIB1			LTIB2			LTIB3			LMMAL			LLMAL			LHEE			LMT1			LMT5			LMT3			RTHI1			RTHI2			RTHI3			RTIB1			RTIB3			RTIB2			RLMAL			RMMAL			RHEE			RMT5			RMT1			RMT3			LDUPA			LMUPA			LUUPA			LUL			LRAD			LRFIN			RRAD			RMUPA			RDUPA			RUUPA			
		X1	Y1	Z1	X2	Y2	Z2	X3	Y3	Z3	X4	Y4	Z4	X5	Y5	Z5	X6	Y6	Z6	X7	Y7	Z7	X8	Y8	Z8	X9	Y9	Z9	X10	Y10	Z10	X11	Y11	Z11	X12	Y12	Z12	X13	Y13	Z13	X14	Y14	Z14	X15	Y15	Z15	X16	Y16	Z16	X17	Y17	Z17	X18	Y18	Z18	X19	Y19	Z19	X20	Y20	Z20	X21	Y21	Z21	X22	Y22	Z22	X23	Y23	Z23	X24	Y24	Z24	X25	Y25	Z25	X26	Y26	Z26	X27	Y27	Z27	X28	Y28	Z28	X29	Y29	Z29	X30	Y30	Z30	X31	Y31	Z31	X32	Y32	Z32	X33	Y33	Z33	X34	Y34	Z34	X35	Y35	Z35	X36	Y36	Z36	X37	Y37	Z37	X38	Y38	Z38	X39	Y39	Z39	X40	Y40	Z40	X41	Y41	Z41	X42	Y42	Z42	X43	Y43	Z43	X44	Y44	Z44	X45	Y45	Z45	X46	Y46	Z46	X47	Y47	Z47	X48	Y48	Z48	
3140	15.69	-298.3338	921.03314	-962.24646	-241.66835	992.2998	-860.14337	-244.08017	1011.2863	-1055.9619	95.31514	230.79883	-2059.146	124.61108	244.84991	161.38168	428.91415	806.36761	-992.44818	430.47488	805.59399	-928.08972	414.90311	818.76239	-964.03583				-15.387063	1049.4806	-949.75006	-68.118401	874.95154	-955.20923	272.30957	910.84857	-955.88306	-43.189663	929.00494	-1154.0056	-41.313309	931.72491	-755.49237	334.76022	662.52808	-677.15771	311.94968	613.17523	-639.98029	279.66483	652.49011	-641.17163	193.65132	270.38211	-476.63242	234.92387	279.25241	-506.07031	225.16353	215.72734	-496.2543	178.27161	82.645432	-558.68384	239.6656	83.347931	-488.17673	268.68555	27.357603	-546.95978	76.348534	41.691784	-451.4234	148.99734	28.910627	-390.56454	101.17086	32.806072	-408.50009	352.11618	633.94226	-1230.0934	297.84589	629.04218	-1267.2554	326.05475	587.86578	-1269.0784	172.91077	275.63678	-1419.7281	195.83351	214.96107	-1414.255	220.16003	272.40036	-1401.484	222.81807	80.494225	-1406.782	153.04465	78.378677	-1340.7935	252.32152	31.504986	-1349.476	145.33267	26.237013	-1501.845	61.488094	36.963665	-1460.4468	93.049866	30.456341	-1498.5425	32.018261	692.76917	-688.26215	14.789934	751.85382	-695.09546	-17.519783	739.14453	-730.72137	63.530125	361.33508	-687.86389	57.582748	359.84772	-738.4469	66.20549	256.09869	-753.78278	130.75282	365.01114	-1215.5726	77.680855	729.91205	-1220.7703	58.646515	684.73181	-1211.4535	22.665453	754.89697	-1205.2852
3141	15.695	-298.2084	921.43341	-962.33179	-241.6976	992.63171	-860.17853	-243.88316	1011.6857	-1056.0193	95.413002	230.97923	-2059.3225	124.65205	245.05621	161.37936	429.17578	807.00366	-992.34283	430.75137	806.24945	-927.89447	415.1618	819.41498	-963.87903				-15.384579	1049.7129	-949.62244	-68.045082	875.07214	-955.13513	272.43506	911.40723	-955.69092	-42.960678	929.21875	-1153.9362	-41.396725	931.87842	-755.46924	335.01212	662.85608	-677.09058	312.22101	613.42493	-639.98151	279.97824	652.73608	-641.151	193.78578	270.36865	-476.82193	235.07013	279.20026	-506.22577	225.25119	215.71556	-496.37451	178.29199	82.628891	-558.72253	239.66982	83.364929	-488.20886	268.70575	27.345779	-546.97412	76.344078	41.682541	-451.43362	148.98636	28.910761	-390.58954	101.17951	32.800964	-408.5058	352.44034	634.47449	-1229.951	298.20926	629.35107	-1267.1615	326.44711	588.29388	-1268.9307	173.21643	275.70056	-1419.5918	196.00996	214.9848	-1414.1759	220.4151	272.40134	-1401.363	222.87497	80.524086	-1406.751	153.06674	78.409798	-1340.7714	252.31403	31.506859	-1349.4827	145.35477	26.255589	-1501.8596	61.478081	36.963078	-1460.4774	93.045044	30.47011	-1498.5581	31.89119	693.0509	-688.07227	14.606974	752.31958	-694.98645	-17.511587	739.15533	-730.48743	63.491421	361.54919	-687.78705	57.51178	360.12253	-738.34552	66.060379	256.74741	-753.82483	130.78407	365.26471	-1215.5264	77.983528	730.19104	-1220.7482	58.946678	685.03021	-1211.3507	22.94157	755.24359	-1205.1595
3142	15.7	-298.19772	921.88727	-962.65741	-241.70007	992.78381	-860.33655	-243.65237	1012.2531	-1056.1176	95.47538	231.29919	-2059.1931	124.6485	245.31075	161.38988	429.44507	807.73254	-992.15179	431.01129	806.89502	-927.75397	415.41238	820.07953	-963.71356				-15.363751	1049.9456	-949.51593	-67.953323	875.25446	-955.08496	272.54855	911.98145	-955.46338	-42.70182	929.46136	-1153.9012	-41.414635	932.02826	-755.42474	335.2894	663.33136	-677.07001	312.50488	613.70435	-640.03625	280.17197	653.0036	-641.17096	193.8992	270.40106	-476.97638	235.17709	279.17111	-506.4035	225.3295	215.66786	-496.5	178.33473	82.607956	-558.78394	239.68837	83.379356	-488.25339	268.68475	27.361231	-546.98047	76.335266	41.665051	-451.45316	148.92131	29.011238	-390.48557	101.17284	32.811104	-408.51761	352.79013	634.95605	-1229.855	298.54733	629.76898	-1267.0455	326.85257	588.69122	-1268.7775	173.41129	275.77005	-1419.4575	196.21062	215.03687	-1414.0989	220.87633	272.12091	-1401.1385	222.942	80.539734	-1406.7323	153.11475	78.414001	-1340.7809	252.31743	31.502918	-1349.4906	145.3445	26.241024	-1501.8762	61.476254	36.972736	-1460.5156	93.024742	30.474001	-1498.5745	31.970512	693.3092	-687.96613	14.690818	752.59546	-694.89752	-17.445002	739.38409	-730.38495	63.479237	361.80499	-687.72784	57.500332	360.39636	-738.25873	66.148575	256.71432	-753.64594	130.69379	365.7688	-1215.537	78.236595	730.51886	-1220.6653	59.227703	685.30103	-1211.2894	23.261957	755.51068	-1205.142
3143	15.705	-298.24423	922.34967	-963.22253	-241.82143	992.88818	-860.50806	-243.38371	1012.9343	-1056.197	95.498581	231.55406	-2059.1467	124.65107	245.61166	161.42094	429.68701	808.45093	-991.97217	431.26172	807.55756	-927.60016	415.63345	820.73334	-963.57056				-15.324919	1050.1707	-949.4248	-67.764496	875.5423	-955.09204	272.67294	912.52637	-955.26929	-42.509487	929.82648	-1153.772	-41.422169	932.20538	-755.34705	335.57495	663.71191	-676.96143	312.76471	614.065	-640.06311	280.34866	653.34515	-641.1969	194.00783	270.43326	-477.13809	235.30086	279.19113	-506.53195	225.37878	215.68433	-496.60904	178.36501	82.574684	-558.85352	239.65852	83.376976	-488.28876	268.68332	27.343077	-547.00287	76.302673	41.669609	-451.45889	148.90337	29.018946	-390.51959	101.16606	32.820568	-408.54126	353.14304	635.4538	-1229.7566	298.8688	630.20953	-1266.9292	327.1803	589.18158	-1268.6445	173.75299	275.79288	-1419.3107	196.37262	215.05176	-1414.0193	220.95233	272.33551	-1401.093	222.97649	80.524094	-1406.7333	153.13905	78.436501	-1340.7683	252.2991	31.496428	-1349.4998	145.35489	26.247828	-1501.89	61.441326	36.966087	-1460.5554	93.021149	30.497625	-1498.6077	32.186611	693.59106	-687.85461	14.961512	752.73322	-694.78662	-17.458017	739.82892	-730.12921	63.517204	362.06973	-687.65247	57.523117	360.66049	-738.24243	66.143089	256.94885	-753.65137	129.98538	366.18427	-1215.6183	78.489792	730.83704	-1220.5973	59.470394	685.62445	-1211.1731	23.512878	755.83508	-1205.0844
3144	15.71	-298.22949	922.85651	-963.70758	-241.90712	992.94592	-860.69318	-243.12561	1013.6832	-1056.2839	95.417389	231.85745	-2058.886	124.63112	245.88408	161.45213	429.99188	809.08759	-991.64984	431.50891	808.25	-927.43866	415.9642	821.30164	-963.27338				-15.297345	1050.4542	-949.27991	-67.610291	875.84149	-955.07281	272.84686	913.0921	-955.08325	-42.323257	930.19745	-1153.6483	-41.403923	932.41864	-755.255	335.85312	664.04816	-676.89087	313.02695	614.39221	-640.05505	280.54803	653.65521	-641.20862	194.14124	270.42465	-477.31207	235.38625	279.1442	-506.6781	225.47375	215.70425	-496.67599	178.40402	82.553192	-558.9054	239.66745	83.382874	-488.31442	268.67111	27.34334	-546.99023	76.295044	41.671829	-451.47647	148.89984	29.024429	-390.57004	101.17482	32.830841	-408.55566	353.50565	635.99048	-1229.627	299.22549	630.6452	-1266.7657	327.58337	589.31012	-1268.6477	174.00392	275.85107	-1419.1864	196.64082	215.12695	-1413.9408	221.24188	272.32346	-1400.9829	223.04012	80.501617	-1406.7102	153.1628	78.478165	-1340.7603	252.28587	31.498402	-1349.481	145.35541	26.236153	-1501.9098	61.413307	36.942505	-1460.5813	93.036263	30.523855	-1498.6031	32.446869	693.88269	-687.73016	15.234353	753	-694.67334	-17.29097	740.05023	-729.9483	63.552349	362.34314	-687.63464	57.447487	360.9859	-738.17798	66.126167	257.22693	-753.59039	129.35974	366.67538	-1215.7213	78.663895	731.1972	-1220.4924	59.643398	685.98279	-1211.0635	23.740177	756.20349	-1205.0044
3145	15.715	-298.10999	923.34283	-964.21106	-241.90349	993.03308	-860.89709	-242.79861	1014.4026	-1056.3943	95.429344	231.95935	-2058.9817	124.60466	246.17549	161.48264	430.26108	809.78955	-991.54517	431.77167	809.03345	-927.26123	416.18472	822.05005	-963.07098				-15.239464	1050.8019	-949.14093	-67.398689	876.14832	-955.01587	273.02469	913.66443	-954.91943	-42.052494	930.50934	-1153.588	-41.337036	932.6629	-755.13849	336.1264	664.44684	-676.86926	313.27859	614.78802	-640.06494	280.77029	653.94867	-641.22943	194.18886	270.4574	-477.43503	235.47861	279.1265	-506.80649	225.60591	215.69643	-496.72763	178.45169	82.525429	-558.9696	239.6674	83.380806	-488.35724	268.67587	27.355478	-546.98761	76.274391	41.655342	-451.47534	148.88028	29.020718	-390.60666	101.1722	32.840931	-408.56131	353.90277	636.50684	-1229.5443	299.64243	631.07166	-1266.6637	328.1636	590.09589	-1268.4038	174.24338	275.92184	-1419.0706	196.84801	215.10803	-1413.8865	221.53384	272.29617	-1400.8506	223.11444	80.509293	-1406.7032	153.22893	78.489662	-1340.7676	252.30107	31.505041	-1349.4943	145.36673	26.231621	-1501.9312	61.403706	36.963211	-1460.6145	93.01416	30.537487	-1498.634	32.756145	694.18524	-687.64368	15.467443	753.27936	-694.58722	-16.93195	740.08197	-729.87561	63.603989	362.57581	-687.68439	57.547474	361.26334	-738.20764	66.123291	257.49869	-753.58832	129.61292	366.83466	-1215.7434	78.819336	731.53558	-1220.4656	59.779854	686.3775	-1210.9661	23.935162	756.61163	-1204.8248
3146	15.72	-298.02786	923.84375	-964.55017	-241.86755	993.25427	-860.99219	-242.51018	1015.0534	-1056.4504	95.356995	232.15791	-2059.0464	124.60835	246.44984	161.48239	430.46704	810.63641	-991.3681	432.02335	809.72412	-927.06805	416.41492	822.76031	-962.86658				-15.194282	1051.1125	-949.06915	-67.128258	876.55316	-955.00134	273.16638	914.34442	-954.77051	-41.857586	930.89044	-1153.4849	-41.274677	932.97461	-755.02802	336.36151	664.91766	-676.81458	313.50815	615.2218	-640.08929	280.98828	654.31445	-641.21619	194.28094	270.45901	-477.60214	235.5965	279.13669	-506.90396	225.72011	215.72751	-496.77817	178.48555	82.508553	-558.99219	239.65988	83.392792	-488.37073	268.68906	27.352909	-546.98334	76.258232	41.642265	-451.48074	148.85551	29.045164	-390.60876	101.15146	32.853878	-408.56818	354.31177	637.09894	-1229.4093	300.05484	631.50385	-1266.5052	328.6311	590.61469	-1268.2196	174.54489	275.98883	-1418.9365	195.88115	213.62555	-1413.5809	221.86691	272.29501	-1400.733	223.18115	80.490036	-1406.6902	153.26796	78.510406	-1340.7902	252.30339	31.497025	-1349.5182	145.38617	26.210945	-1501.9523	61.402931	36.959137	-1460.6362	93.014442	30.562555	-1498.6699	32.974171	694.50812	-687.63049	15.803558	753.4126	-694.57483	-16.72784	740.66681	-729.95123	63.63958	362.95953	-687.68756	57.59251	361.57651	-738.19958	66.145866	257.78897	-753.57703	130.19981	367.04483	-1215.6631	78.936729	731.88434	-1220.4663	59.896965	686.72766	-1210.91	24.134924	757.02155	-1204.6984
